<?xml version="1.0" encoding="UTF-8" standalone="no"?>
<svg
   xmlns:dc="http://purl.org/dc/elements/1.1/"
   xmlns:cc="http://creativecommons.org/ns#"
   xmlns:rdf="http://www.w3.org/1999/02/22-rdf-syntax-ns#"
   xmlns:svg="http://www.w3.org/2000/svg"
   xmlns="http://www.w3.org/2000/svg"
   xmlns:sodipodi="http://sodipodi.sourceforge.net/DTD/sodipodi-0.dtd"
   xmlns:inkscape="http://www.inkscape.org/namespaces/inkscape"
   sodipodi:docname="deleteCanWhole.svg"
   inkscape:version="1.0 (4035a4fb49, 2020-05-01)"
   id="svg8"
   version="1.1"
   viewBox="0 0 352.77333 35.277333"
   height="100pt"
   width="1000pt">
  <defs
     id="defs2" />
  <sodipodi:namedview
     inkscape:window-maximized="1"
     inkscape:window-y="-9"
     inkscape:window-x="-9"
     inkscape:window-height="1001"
     inkscape:window-width="1920"
     inkscape:showpageshadow="false"
     showborder="true"
     inkscape:pagecheckerboard="false"
     showgrid="false"
     inkscape:document-rotation="0"
     inkscape:current-layer="layer1"
     inkscape:document-units="pt"
     inkscape:cy="106.32536"
     inkscape:cx="400"
     inkscape:zoom="1.979899"
     inkscape:pageshadow="2"
     inkscape:pageopacity="0.70196078"
     borderopacity="1.0"
     bordercolor="#666666"
     pagecolor="#0c0c0c"
     id="base"
     units="pt"
     scale-x="0.26458" />
  <metadata
     id="metadata5">
    <rdf:RDF>
      <cc:Work
         rdf:about="">
        <dc:format>image/svg+xml</dc:format>
        <dc:type
           rdf:resource="http://purl.org/dc/dcmitype/StillImage" />
        <dc:title></dc:title>
      </cc:Work>
    </rdf:RDF>
  </metadata>
  <g
     id="layer1"
     inkscape:groupmode="layer"
     inkscape:label="Layer 1">
    <g
       id="g88"
       transform="matrix(0.02521063,0,0,0.02993554,173.77814,14.581482)">
      <path
         style="stroke-width:9.49779"
         id="path20"
         fill="#ffffff"
         d="m 42.850232,207.33795 c 0.52257,7.04178 5.23414,12.16362 10.9915,12.16362 h 90.375088 c 5.75736,0 10.4686,-5.33503 10.99182,-12.16362 L 165.32832,77.587719 H 32.731202 Z" />
      <path
         style="stroke-width:11.2393"
         id="path55"
         fill="#ffffff"
         d="m 173.01815,37.46445 h -49.71373 v -8.49044 c 0,-9.28716 -5.50161,-16.716791 -12.37918,-16.716791 H 85.970227 c -6.877192,0 -12.379175,7.429631 -12.379175,16.716791 v 8.49044 H 23.681025 c -6.877564,0 -12.379541,7.42963 -12.379541,16.716796 0,9.286664 5.501977,16.716294 12.379541,16.716294 H 173.01815 c 6.87793,0 12.37918,-7.42963 12.37918,-16.716294 0,-9.287166 -5.50125,-16.716796 -12.37918,-16.716796 z" />
    </g>
  </g>
</svg>
