<?xml version="1.0" encoding="UTF-8" standalone="no"?>
<svg
   xmlns:dc="http://purl.org/dc/elements/1.1/"
   xmlns:cc="http://creativecommons.org/ns#"
   xmlns:rdf="http://www.w3.org/1999/02/22-rdf-syntax-ns#"
   xmlns:svg="http://www.w3.org/2000/svg"
   xmlns="http://www.w3.org/2000/svg"
   xmlns:sodipodi="http://sodipodi.sourceforge.net/DTD/sodipodi-0.dtd"
   xmlns:inkscape="http://www.inkscape.org/namespaces/inkscape"
   inkscape:version="1.0 (4035a4fb49, 2020-05-01)"
   sodipodi:docname="heartButtonLiked.svg"
   id="svg22"
   version="1.1"
   fill="none"
   viewBox="0 0 21 19"
   height="19"
   width="21">
  <metadata
     id="metadata28">
    <rdf:RDF>
      <cc:Work
         rdf:about="">
        <dc:format>image/svg+xml</dc:format>
        <dc:type
           rdf:resource="http://purl.org/dc/dcmitype/StillImage" />
        <dc:title></dc:title>
      </cc:Work>
    </rdf:RDF>
  </metadata>
  <defs
     id="defs26" />
  <sodipodi:namedview
     inkscape:current-layer="svg22"
     inkscape:window-maximized="1"
     inkscape:window-y="-9"
     inkscape:window-x="-9"
     inkscape:cy="9.4542169"
     inkscape:cx="10.5"
     inkscape:zoom="43.684211"
     showgrid="false"
     id="namedview24"
     inkscape:window-height="1001"
     inkscape:window-width="1920"
     inkscape:pageshadow="2"
     inkscape:pageopacity="0"
     guidetolerance="10"
     gridtolerance="10"
     objecttolerance="10"
     borderopacity="1"
     bordercolor="#666666"
     pagecolor="#ffffff" />
  <path
     id="path20"
     fill="black"
     d="M19.1599 9.33822C21.2999 7.19833 21.2999 3.72364 19.1599 1.60492C17.0199 -0.534975 13.5451 -0.534975 11.4051 1.60492L10.3668 2.66428L9.32862 1.62611C7.18862 -0.534975 3.71378 -0.534975 1.59497 1.60492C0.55675 2.64309 0.00585938 4.02026 0.00585938 5.48217C0.00585938 6.94408 0.577938 8.32124 1.59497 9.35941L10.3668 18.1309L19.1599 9.33822ZM1.3619 5.48217C1.3619 4.38044 1.78566 3.36346 2.56962 2.60072C3.37477 1.79561 4.41298 1.39305 5.4512 1.39305C6.48942 1.39305 7.52764 1.79561 8.33278 2.60072L10.3668 4.6135L12.4009 2.57953C13.99 0.990498 16.5961 0.990498 18.1641 2.57953C18.9268 3.34227 19.3718 4.35925 19.3718 5.46098C19.3718 6.56271 18.948 7.57969 18.1641 8.34243L10.3668 16.1605L2.56962 8.36362C1.80685 7.57969 1.3619 6.56271 1.3619 5.48217Z" />
  <path
     id="path30"
     d="M 6.3539731,12.114908 C 3.8189593,9.5774786 2.2882558,8.028672 2.2082923,7.9201976 1.2650546,6.6406483 1.1135615,5.0555461 1.8024795,3.6740964 1.9809505,3.3162181 2.1891812,3.0262959 2.4963827,2.707966 2.8976518,2.2921608 3.230719,2.0443547 3.6885735,1.8209611 5.1182594,1.1233978 6.774287,1.3200828 8.0162902,2.3349603 c 0.088456,0.07228 0.6531617,0.618562 1.2549013,1.21396 L 10.365264,4.631462 11.502813,3.4986388 c 0.693485,-0.6906043 1.212012,-1.1881418 1.3283,-1.2745315 1.093176,-0.8121168 2.47624,-1.0369202 3.75235,-0.6099073 1.309941,0.4383334 2.342984,1.5687139 2.66418,2.9152086 0.290762,1.2189079 -0.01162,2.539166 -0.795779,3.4745195 -0.07542,0.089962 -1.924044,1.956851 -4.108054,4.1486429 l -3.970927,3.985076 z"
     style="fill:#000000;stroke-width:0.0228916" />
  <path
     id="path32"
     d="M 5.8392105,13.569061 C 2.3344199,10.061436 1.2680676,8.9813327 1.1439516,8.813253 0.53835363,7.9931434 0.19590924,7.1556413 0.05818206,6.1578313 0.01369405,5.8355233 0.01971912,5.040646 0.06911352,4.7156627 0.25901216,3.466252 0.77031127,2.4505401 1.6445579,1.5859929 2.0927101,1.1428126 2.481319,0.86407632 3.0373494,0.58698937 3.5538349,0.32960884 3.9692149,0.19381006 4.5596386,0.08931255 4.9087077,0.02753172 5.6271027,0.0050903 5.9964174,0.04443007 6.8545405,0.13583824 7.6847906,0.42761512 8.3939759,0.88701033 8.7646181,1.1271044 8.9809353,1.315744 9.6715865,2.0011516 L 10.365462,2.689759 10.976406,2.0660352 c 0.336019,-0.3430481 0.698504,-0.6967937 0.805522,-0.7861015 0.553819,-0.46216832 1.305926,-0.86066061 1.98347,-1.05091157 0.53833,-0.15116022 0.956333,-0.20804581 1.526914,-0.20779601 1.095301,4.7951e-4 2.131126,0.31315538 3.021356,0.91203083 0.826852,0.55623965 1.452433,1.26970295 1.879937,2.14403205 0.260898,0.5335893 0.415611,1.0322524 0.508314,1.6383737 0.05558,0.3633864 0.05562,1.1240876 9.2e-5,1.4879518 -0.167061,1.0945185 -0.591903,2.030603 -1.284823,2.8309347 -0.118085,0.1363896 -2.201134,2.2335768 -4.628998,4.6604158 l -4.414308,4.412434 z M 14.393453,12.143976 C 16.94236,9.5889724 18.443672,8.0674737 18.538323,7.9433735 19.075704,7.2387995 19.336119,6.5149821 19.37427,5.6198795 19.415424,4.6543224 19.112343,3.7225015 18.50313,2.9415663 18.347228,2.7417188 18.00191,2.3977302 17.790964,2.2321425 16.601944,1.2987889 14.9315,1.1143436 13.549824,1.7638488 12.937121,2.0518715 12.783488,2.178929 11.479623,3.4759507 L 10.364668,4.5850539 9.2705871,3.5080849 C 8.6688425,2.9157519 8.1043976,2.3717412 8.0162651,2.2991721 7.0915058,1.5377186 5.8229861,1.2250536 4.6359966,1.4660029 3.5928407,1.6777551 2.6298459,2.3332813 2.0143466,3.2506024 1.4359182,4.1126743 1.2203158,5.2406455 1.4347575,6.2828493 1.558955,6.8864589 1.8447107,7.4979599 2.2428156,8.0120482 c 0.1408876,0.1819335 8.0991474,8.1527468 8.1312804,8.1441068 0.01259,-0.0034 1.821301,-1.808866 4.019357,-4.012179 z"
     style="fill:#000000;stroke-width:0.0228916" />
  <path
     id="path34"
     d="M 5.8504864,13.580479 C 2.9859645,10.713796 1.2717827,8.9817127 1.1763776,8.857558 -0.38151612,6.8302042 -0.36393308,4.008463 1.2188049,2.0487952 1.4138371,1.807316 1.836348,1.383618 2.0644578,1.2007663 2.6218297,0.75397998 3.3772999,0.37344754 4.0627989,0.19419645 4.6322105,0.04530103 5.4170994,-0.01578894 5.9947163,0.04383019 6.7894323,0.12585736 7.6586683,0.42235842 8.3138554,0.83490088 8.7258707,1.0943288 8.9530379,1.2893283 9.6591996,1.9897396 L 10.36358,2.6883842 11.021248,2.0216131 c 0.361717,-0.366724 0.740077,-0.731234 0.8408,-0.8100222 0.563882,-0.44108397 1.250533,-0.79685064 1.895004,-0.9818375 0.522352,-0.14993411 0.955606,-0.20878105 1.53526,-0.20852728 0.900731,3.9433e-4 1.686904,0.18989098 2.493516,0.60102953 1.027293,0.52362225 1.881597,1.38975095 2.396607,2.42978055 0.261107,0.5272907 0.429503,1.0642405 0.518149,1.6521807 0.05672,0.3761826 0.05747,1.1319925 0.0015,1.4993976 -0.166755,1.0944123 -0.591335,2.0298661 -1.284893,2.8309347 -0.118084,0.1363896 -2.201121,2.2335638 -4.628969,4.6603878 l -4.41427,4.412406 z M 14.03789,12.493072 C 18.52152,8.0037717 18.477902,8.0484302 18.691725,7.7282337 19.138755,7.0588125 19.342795,6.4215053 19.374063,5.596988 19.415769,4.4972153 19.015017,3.4555318 18.240768,2.6511906 17.846531,2.2416309 17.533923,2.0115694 17.063495,1.7847851 15.633328,1.0953295 13.934676,1.2947646 12.69759,2.2973768 12.60316,2.3739068 12.039504,2.9198804 11.445015,3.5106513 L 10.364126,4.5847799 9.2588706,3.4987046 C 8.6509797,2.9013632 8.0904145,2.3605243 8.0131701,2.2968402 7.6665215,2.0110459 7.1894995,1.7489132 6.7465809,1.6008251 5.3879014,1.1465561 3.9438282,1.4216792 2.8326732,2.3464979 2.1149047,2.9438996 1.6209035,3.7576987 1.4362048,4.646988 c -0.2394772,1.1530372 0.030408,2.3159306 0.7692925,3.3147608 0.08337,0.1127 1.5744916,1.6220256 4.1374394,4.1879502 2.2039013,2.206461 4.0125203,4.011747 4.0191533,4.011747 0.0066,0 1.660743,-1.650768 3.6758,-3.668374 z"
     style="fill:#000000;stroke-width:0.0228916" />
</svg>
